<svg version="1.0" xmlns="http://www.w3.org/2000/svg" width="900" height="900" viewBox="0 0 800 800" preserveAspectRatio="xMidYMid meet">
  <g transform="translate(-250,1100) scale(0.169,-0.169)" fill="#000000" stroke="none">
    <path fill="currentColor" d="M2730 6204 c-250 -26 -433 -92 -613 -222 -181 -130 -329 -338 -396 -557 -55 -179 -55 -169 -53 -1350 1 -678 6 -1119 12 -1166 15 -111 45 -211 95 -318 151 -317 430 -529 800 -607 85 -18 152 -19 1285 -19 948 0 1210 3 1270 13 247 44 460 151 621 311 169 170 268 371 304 616 14 97 15 244 12 1225 -3 1094 -3 1117 -24 1200 -58 235 -154 402 -321 561 -126 121 -235 188 -406 248 -189 67 -132 64 -1401 66 -632 1 -1166 1 -1185 -1z m1424 -929 c205 -62 434 -143 487 -171 60 -33 141 -118 174 -184 43 -85 57 -163 53 -295 -3 -112 -5 -125 -36 -187 -61 -125 -170 -191 -312 -190 -75 0 -185 30 -480 132 -47 17 -89 30 -94 30 -4 0 -7 -228 -6 -507 2 -453 0 -514 -15 -563 -79 -257 -323 -425 -590 -406 -256 17 -464 198 -521 452 -53 240 70 497 294 612 162 83 294 87 514 15 16 -5 17 30 18 505 0 428 3 518 16 554 53 150 170 237 321 238 43 0 97 -11 177 -35z"/>
    <path d="M3310 3761 c-126 -39 -199 -134 -200 -262 0 -151 112 -263 265 -264 59 0 78 5 124 30 98 54 148 147 138 257 -15 165 -178 284 -327 239z"/>
  </g>
</svg>
